<svg fill="none" viewBox="0 0 832 832" xmlns="http://www.w3.org/2000/svg"><rect width="832" height="832" rx="183" fill="url(#bg-gradient)"></rect><g filter="url(#left-filter)"><path d="M188.955 197.596C309.404 197.596 407.047 295.552 407.047 416C407.047 536.449 309.404 634.405 188.955 634.405C187.051 634.405 185.153 634.38 183.262 634.332C161.511 633.772 150.635 633.492 140.716 623.315C130.797 613.137 130.797 599.88 130.797 573.367V258.633C130.797 232.12 130.797 218.864 140.716 208.686C150.636 198.508 161.511 198.229 183.262 197.669C185.154 197.621 187.051 197.596 188.955 197.596Z" fill="white"></path></g><g filter="url(#right-filter)"><path d="M657.638 634.404C537.19 634.404 439.547 536.449 439.547 416.001C439.547 295.552 537.19 197.596 657.638 197.596C659.542 197.596 661.44 197.621 663.332 197.669C685.082 198.229 695.958 198.509 705.877 208.686C715.797 218.864 715.797 232.121 715.797 258.634L715.797 573.368C715.797 599.88 715.797 613.136 705.877 623.314C695.957 633.492 685.082 633.772 663.331 634.331C661.44 634.379 659.542 634.404 657.638 634.404Z" fill="white"></path></g><defs><filter id="left-filter" x="90.1716" y="161.846" width="357.5" height="527.809" filterUnits="userSpaceOnUse" color-interpolation-filters="sRGB"><feFlood flood-opacity="0" result="BackgroundImageFix"></feFlood><feColorMatrix in="SourceAlpha" type="matrix" values="0 0 0 0 0 0 0 0 0 0 0 0 0 0 0 0 0 0 127 0" result="hardAlpha"></feColorMatrix><feOffset dy="14.625"></feOffset><feGaussianBlur stdDeviation="20.3125"></feGaussianBlur><feComposite in2="hardAlpha" operator="out"></feComposite><feColorMatrix type="matrix" values="0 0 0 0 0 0 0 0 0 0 0 0 0 0 0 0 0 0 0.5 0"></feColorMatrix><feBlend mode="normal" in2="BackgroundImageFix" result="effect1_dropShadow"></feBlend><feBlend mode="normal" in="SourceGraphic" in2="effect1_dropShadow" result="shape"></feBlend><feColorMatrix in="SourceAlpha" type="matrix" values="0 0 0 0 0 0 0 0 0 0 0 0 0 0 0 0 0 0 127 0" result="hardAlpha"></feColorMatrix><feOffset dy="-35.75"></feOffset><feGaussianBlur stdDeviation="17.875"></feGaussianBlur><feComposite in2="hardAlpha" operator="arithmetic" k2="-1" k3="1"></feComposite><feColorMatrix type="matrix" values="0 0 0 0 0 0 0 0 0 0 0 0 0 0 0 0 0 0 0.4 0"></feColorMatrix><feBlend mode="normal" in2="shape" result="effect2_innerShadow"></feBlend></filter><filter id="right-filter" x="398.922" y="161.846" width="357.5" height="527.808" filterUnits="userSpaceOnUse" color-interpolation-filters="sRGB"><feFlood flood-opacity="0" result="BackgroundImageFix"></feFlood><feColorMatrix in="SourceAlpha" type="matrix" values="0 0 0 0 0 0 0 0 0 0 0 0 0 0 0 0 0 0 127 0" result="hardAlpha"></feColorMatrix><feOffset dy="14.625"></feOffset><feGaussianBlur stdDeviation="20.3125"></feGaussianBlur><feComposite in2="hardAlpha" operator="out"></feComposite><feColorMatrix type="matrix" values="0 0 0 0 0 0 0 0 0 0 0 0 0 0 0 0 0 0 0.5 0"></feColorMatrix><feBlend mode="normal" in2="BackgroundImageFix" result="effect1_dropShadow"></feBlend><feBlend mode="normal" in="SourceGraphic" in2="effect1_dropShadow" result="shape"></feBlend><feColorMatrix in="SourceAlpha" type="matrix" values="0 0 0 0 0 0 0 0 0 0 0 0 0 0 0 0 0 0 127 0" result="hardAlpha"></feColorMatrix><feOffset dy="-35.75"></feOffset><feGaussianBlur stdDeviation="17.875"></feGaussianBlur><feComposite in2="hardAlpha" operator="arithmetic" k2="-1" k3="1"></feComposite><feColorMatrix type="matrix" values="0 0 0 0 0 0 0 0 0 0 0 0 0 0 0 0 0 0 0.4 0"></feColorMatrix><feBlend mode="normal" in2="shape" result="effect2_innerShadow"></feBlend></filter><linearGradient id="bg-gradient" x1="416" y1="0" x2="416" y2="832" gradientUnits="userSpaceOnUse"><stop offset="0.100024" stop-color="#304DC0"></stop><stop offset="0.578171" stop-color="#121265"></stop><stop offset="0.956731" stop-color="#090939"></stop></linearGradient></defs></svg>
